<?xml version="1.0" encoding="UTF-8"?>
<svg version="1.1" xmlns="http://www.w3.org/2000/svg" width="260" height="79">
<path d="M0 0 C5.61 0 11.22 0 17 0 C18.98 12.21 20.96 24.42 23 37 C24.80465358 27.37518092 26.55815923 17.82050051 27.9921875 8.1484375 C28.89747024 2.20505952 28.89747024 2.20505952 30 0 C35.61 0 41.22 0 47 0 C47 20.79 47 41.58 47 63 C43.04 63 39.08 63 35 63 C34.67 52.11 34.34 41.22 34 30 C32.39786503 39.36348415 32.39786503 39.36348415 30.79907227 48.72753906 C30.59854248 49.89510742 30.3980127 51.06267578 30.19140625 52.265625 C29.88505249 54.05661621 29.88505249 54.05661621 29.57250977 55.88378906 C29.13354685 58.27309508 28.58919046 60.64323818 28 63 C24.7 63 21.4 63 18 63 C15.96917695 56.62394746 14.93230968 50.16089561 13.875 43.5625 C13.69324219 42.44939453 13.51148437 41.33628906 13.32421875 40.18945312 C12.87910692 37.46021481 12.43780997 34.73041748 12 32 C11.97494385 32.93384521 11.9498877 33.86769043 11.92407227 34.82983398 C11.82913072 38.28325189 11.72988742 41.7364896 11.62768555 45.18969727 C11.58428187 46.68639269 11.54261087 48.18313939 11.50268555 49.67993164 C11.44511384 51.82714312 11.38138284 53.97409521 11.31640625 56.12109375 C11.26141968 58.06133423 11.26141968 58.06133423 11.20532227 60.04077148 C11 63 11 63 10 64 C6.7 64 3.4 64 0 64 C0 42.88 0 21.76 0 0 Z " fill="#E5020B" transform="translate(79,3)"/>
<path d="M0 0 C3.96 0 7.92 0 12 0 C14.57892228 6.31391317 16.83408321 12.50224964 19 19 C21.31 12.73 23.62 6.46 26 0 C29.96 0 33.92 0 38 0 C36.48813191 5.26761636 34.88918873 10.42705061 32.921875 15.54296875 C32.56609375 16.47173828 32.2103125 17.40050781 31.84375 18.35742188 C31.10860293 20.25961491 30.36363665 22.15803943 29.609375 24.05273438 C29.25875 24.97763672 28.908125 25.90253906 28.546875 26.85546875 C28.22557617 27.67684326 27.90427734 28.49821777 27.57324219 29.34448242 C26.32346831 35.13400138 28.3465915 40.4901185 30.28515625 45.921875 C30.50570175 46.54854065 30.72624725 47.1752063 30.95347595 47.82086182 C31.65037124 49.79946978 32.35560504 51.77494465 33.0625 53.75 C33.77229754 55.73955118 34.48010776 57.72971334 35.18223572 59.72198486 C35.81586422 61.51920051 36.45669415 63.3138724 37.09790039 65.10839844 C38 68 38 68 38 71 C36.783125 71.04125 35.56625 71.0825 34.3125 71.125 C33.62800781 71.14820312 32.94351563 71.17140625 32.23828125 71.1953125 C29.22375688 70.932265 27.59423525 70.65049903 25 69 C23.48384212 66.14614664 22.59934018 63.15409535 21.6875 60.0625 C21.42388672 59.23814453 21.16027344 58.41378906 20.88867188 57.56445312 C19.84574754 54.22980414 19 51.51571841 19 48 C18.34 48 17.68 48 17 48 C16.7525 49.258125 16.505 50.51625 16.25 51.8125 C15.01841106 57.41712212 13.03524318 62.6405263 11 68 C7.04 67.67 3.08 67.34 -1 67 C-0.18877007 62.94385036 0.75748618 59.87105891 2.3203125 56.10546875 C2.77277344 54.98462891 3.22523438 53.86378906 3.69140625 52.70898438 C4.64416379 50.36862765 5.60765889 48.03261243 6.58203125 45.70117188 C11.42572594 33.59193516 9.1431087 27.59689234 4.4375 15.75 C3.59682736 13.62216698 2.76192966 11.49204081 1.93359375 9.359375 C1.56290771 8.42577148 1.19222168 7.49216797 0.81030273 6.53027344 C0 4 0 4 0 0 Z " fill="#E5020B" transform="translate(219,3)"/>
<path d="M0 0 C4.03839342 3.54590641 5.96992167 6.91679502 6.5625 12.25 C6.63440143 15.58828052 6.60703416 18.90993831 6.5625 22.25 C2.6025 22.25 -1.3575 22.25 -5.4375 22.25 C-5.77929688 18.00195312 -5.77929688 18.00195312 -6.12109375 13.75390625 C-6.16961468 11.31359221 -6.16961468 11.31359221 -7.4375 10.25 C-9.77047433 10.20907063 -12.10455225 10.20758277 -14.4375 10.25 C-14.48809881 16.47961977 -14.52319062 22.7091868 -14.54736328 28.93896484 C-14.55743751 31.0594277 -14.57109733 33.17987661 -14.58837891 35.30029297 C-14.61256489 38.34345943 -14.62396869 41.38644266 -14.6328125 44.4296875 C-14.64313507 45.38181122 -14.65345764 46.33393494 -14.66409302 47.31491089 C-14.66431961 48.63605392 -14.66431961 48.63605392 -14.66455078 49.98388672 C-14.668992 50.76110077 -14.67343323 51.53831482 -14.67800903 52.33908081 C-14.60561395 54.49073389 -14.60561395 54.49073389 -12.4375 56.25 C-9.13066534 55.96016731 -9.13066534 55.96016731 -6.4375 54.25 C-6.20222227 51.90012738 -6.02363583 49.54443961 -5.875 47.1875 C-5.79121094 45.89714844 -5.70742188 44.60679688 -5.62109375 43.27734375 C-5.53021484 41.77880859 -5.53021484 41.77880859 -5.4375 40.25 C0.5025 39.755 0.5025 39.755 6.5625 39.25 C7.12884221 57.18417008 7.12884221 57.18417008 2.16796875 62.83984375 C-2.49475355 66.91234804 -6.23453733 68.53927 -12.375 68.5625 C-13.39464844 68.57925781 -14.41429687 68.59601563 -15.46484375 68.61328125 C-19.03918341 68.1764697 -20.66480074 67.56591191 -23.4375 65.25 C-27.55181518 59.31123137 -28.01791714 53.74178831 -27.93359375 46.6875 C-27.93504898 45.6967749 -27.93650421 44.7060498 -27.93800354 43.68530273 C-27.93635148 41.60104415 -27.92486847 39.51677248 -27.90405273 37.43261719 C-27.87508429 34.25923344 -27.88346228 31.08752196 -27.89648438 27.9140625 C-27.89024621 25.88020029 -27.88185466 23.84634331 -27.87109375 21.8125 C-27.87402939 20.87269287 -27.87696503 19.93288574 -27.87998962 18.96459961 C-27.78326961 12.1435928 -27.09372073 5.97801048 -22.125 0.875 C-14.83216671 -3.53462013 -7.62795971 -3.88332494 0 0 Z " fill="#E5020B" transform="translate(30.4375,4.75)"/>
<path d="M0 0 C10.23 0 20.46 0 31 0 C31 3.3 31 6.6 31 10 C24.73 10 18.46 10 12 10 C12 15.28 12 20.56 12 26 C17.28 26 22.56 26 28 26 C28 29.3 28 32.6 28 36 C20.08 36.495 20.08 36.495 12 37 C12 42.94 12 48.88 12 55 C13.918125 54.7525 13.918125 54.7525 15.875 54.5 C20.94037665 53.92823252 25.90563053 53.92824832 31 54 C31 57.63 31 61.26 31 65 C27.14611876 65.33695136 23.29195071 65.66968228 19.4375 66 C18.35146484 66.09539062 17.26542969 66.19078125 16.14648438 66.2890625 C15.08623047 66.37929687 14.02597656 66.46953125 12.93359375 66.5625 C11.96478271 66.64628906 10.99597168 66.73007813 9.99780273 66.81640625 C6.67087325 67.02015663 3.33316277 67 0 67 C0 44.89 0 22.78 0 0 Z " fill="#E6020B" transform="translate(42,3)"/>
<path d="M0 0 C9.9 0 19.8 0 30 0 C30 3.3 30 6.6 30 10 C24.06 10 18.12 10 12 10 C12 15.28 12 20.56 12 26 C16.62 26 21.24 26 26 26 C26 29.3 26 32.6 26 36 C21.38 36 16.76 36 12 36 C12 44.91 12 53.82 12 63 C8.04 63 4.08 63 0 63 C0 42.21 0 21.42 0 0 Z " fill="#E5020B" transform="translate(133,3)"/>
<path d="M0 0 C3.96 0 7.92 0 12 0 C12.33 17.49 12.66 34.98 13 53 C18.61 53.33 24.22 53.66 30 54 C31 55 31 55 31.09765625 57.28515625 C31.08605469 58.20167969 31.07445312 59.11820313 31.0625 60.0625 C31.05347656 60.98160156 31.04445312 61.90070313 31.03515625 62.84765625 C31.02355469 63.55792969 31.01195312 64.26820312 31 65 C20.61616512 65.17116211 10.20816489 65.04163298 0 63 C0 42.21 0 21.42 0 0 Z " fill="#E6020B" transform="translate(167,3)"/>
<path d="M0 0 C3.96 0 7.92 0 12 0 C12 22.11 12 44.22 12 67 C8.04 66.67 4.08 66.34 0 66 C0 44.22 0 22.44 0 0 Z " fill="#E5020B" transform="translate(202,3)"/>
</svg>
