<?xml version="1.0" encoding="utf-8" ?><svg xmlns="http://www.w3.org/2000/svg" xmlns:xlink="http://www.w3.org/1999/xlink" width="1987" height="1987" viewBox="0 0 1987 1987"><defs><linearGradient id="gradient_0" gradientUnits="userSpaceOnUse" x1="253.52516" y1="885.00275" x2="326.60815" y2="766.57025"><stop offset="0" stop-color="#C92C2E"/><stop offset="1" stop-color="#E6512E"/></linearGradient></defs><path fill="url(#gradient_0)" transform="matrix(1.24187 0 0 1.24187 -6.10352e-05 0)" d="M281.036 737.054C285.835 738.421 287.433 746.526 287.762 751.004C289.131 769.634 301.943 781.691 307.922 799.293C317.324 826.97 295.609 825.496 285.706 846.569C278.534 861.195 280.216 881.334 290.144 894.477C293.552 898.988 302.975 906.358 304.411 910.959L303.379 911.826C299.429 911.675 295.792 910.135 291.996 908.851C289.562 907.788 287.065 906.636 284.725 905.565C239.331 884.699 214.987 824.972 251.664 784.735C261.251 774.217 273.253 762.274 277.371 748.408C278.503 744.595 279.344 740.623 281.036 737.054Z"/><path fill="#FEFDFD" transform="matrix(1.24187 0 0 1.24187 -6.10352e-05 0)" d="M769.819 760.239C774.747 759.838 781.335 759.571 786.193 760.062C801.188 761.578 811.398 773.491 808.188 788.686C805.511 801.358 796.269 807.225 786.29 813.727C791.843 820.95 801.565 830.724 808.076 837.632C821.102 821.152 811.333 815.29 836.132 815.867C831.886 828.976 826.349 837.945 817.887 848.606L831.812 863.163C833.833 865.032 834.127 865.096 835.438 867.591L834.928 869.202C831.807 870.813 829.885 870.974 826.407 870.743C814.696 869.968 814.747 868.509 807.631 860.561C794.406 871.343 783.415 874.056 766.563 872.026C748.953 869.904 736.403 853.161 740.12 835.627C742.881 822.605 751.476 816.598 761.83 809.705C747.333 790.879 746.334 771.705 769.819 760.239ZM783.097 858.005C789.372 855.959 792.547 854.496 797.905 850.181C790.848 842.107 778.21 827.901 770.568 820.424C746.287 834.761 754.583 861.02 783.097 858.005ZM781.687 800.347C788.997 795.05 791.528 792.926 794.444 784.004C791.46 777.619 787.893 771.741 779.764 771.89C764.741 776.576 764.056 791.811 775.905 801.54C777.449 802.808 779.98 801.121 781.687 800.347Z"/><path fill="#FEFDFD" transform="matrix(1.24187 0 0 1.24187 -6.10352e-05 0)" d="M982.203 792.222C995.454 791.348 1008.24 790.483 1018.25 800.171C1027.4 808.527 1029.23 816.737 1030.55 828.252C1034.82 865.439 994.972 887.682 967.409 860.904L967.357 868.555L967.334 903.905L949.956 903.922L949.96 793.825L967.108 793.842L967.15 802.678C972.972 796.55 974.51 795.555 982.203 792.222ZM995.723 856.462C1023.21 847.246 1018.28 804.524 984.658 806.267C955.071 818.965 962.189 859.503 995.723 856.462Z"/><defs><linearGradient id="gradient_1" gradientUnits="userSpaceOnUse" x1="344.92868" y1="914.86334" x2="407.5675" y2="771.40527"><stop offset="0" stop-color="#C82C2E"/><stop offset="1" stop-color="#EF5B2E"/></linearGradient></defs><path fill="url(#gradient_1)" transform="matrix(1.24187 0 0 1.24187 -6.10352e-05 0)" d="M383.449 758.811C394.08 766.92 406.247 794.363 410.615 806.958C419.943 833.851 408.705 868.15 389.062 887.807C377.328 899.549 365.247 905.381 349.856 910.485C345.237 911.835 339.186 913.814 334.631 911.912C333.377 909.807 333.55 910.902 334.071 908.527C353.344 893.675 363.197 873.907 355.3 849.717C352.81 842.087 348.986 836.248 345.336 829.237L345.826 828.042C348.833 820.554 352.784 816.187 357.752 810.403C370.523 795.533 377.673 783.447 380.233 763.951C380.739 760.105 381.042 760.407 383.449 758.811Z"/><path fill="#E8562E" transform="matrix(1.24187 0 0 1.24187 -6.10352e-05 0)" d="M317.91 687.107C319.262 687.798 321.738 689.033 322.908 690.026C341 705.374 357.026 722.599 361.08 746.622C366.159 776.718 349.934 792.875 334.284 814.916L331.003 820.473C329.082 823.781 329.144 824.296 326.053 826.442C323.001 826.904 324.375 827.16 321.753 825.84C318.02 819.169 321.105 801.309 319.542 791.421C316.764 773.85 302.923 759.588 304.017 742.563C304.445 735.905 309.869 725.917 312.557 719.491C317.382 707.957 318.003 699.412 317.91 687.107Z"/><path fill="#FEFDFD" transform="matrix(1.24187 0 0 1.24187 -6.10352e-05 0)" d="M662.851 792.246C676.287 791.341 690.471 790.508 700.535 801.365C710.945 812.595 710.393 823.77 710.233 837.801C690.782 837.993 671.362 837.75 651.877 838.028C656.837 856.868 672.113 863.764 689.453 854.533C692.478 852.072 693.735 851.381 697.173 849.421C701.469 852.536 703.294 854.097 707.124 857.783C695.265 872.905 675.236 875.819 657.783 869.522C635.721 861.561 630.85 831.886 639.059 812.547C643.35 802.438 652.808 795.995 662.851 792.246ZM652.198 824.675L681.445 824.781L694.576 824.6C690.924 809.411 684.268 803.486 668.009 805.684C656.988 809.398 655.215 814.139 652.198 824.675Z"/><path fill="#FEFDFD" transform="matrix(1.24187 0 0 1.24187 -6.10352e-05 0)" d="M896.449 758.128C904.95 757.797 926.483 760.241 929.336 769.655C929.119 773.952 923.343 779.164 920.239 782.517C910.262 775.992 895.109 770.37 884.741 779.86C882.65 781.774 878.752 787.417 879.632 790.378C885.914 808.375 910.271 805.151 923.829 817.892C936.362 829.67 935.418 851.502 923.356 863.322C914.212 872.284 903.896 872.234 891.602 872.142C877.298 872.304 868.232 868.305 857.681 858.641C863.816 851.063 866.674 843.179 876.574 850.18C908.161 872.85 934.516 831.712 891.363 822.567C849.337 813.66 851.756 761.413 896.449 758.128Z"/><path fill="#FEFDFD" transform="matrix(1.24187 0 0 1.24187 -6.10352e-05 0)" d="M1064.99 792.227C1077.57 791.772 1092.2 789.734 1101.69 799.804C1109.86 808.199 1109.88 820.204 1109.76 831.177C1109.62 844.374 1109.74 857.658 1109.29 870.894C1103.64 871.156 1098.84 871.069 1093.18 870.932L1092.88 861.479C1081.28 873.594 1064.02 876.619 1049.88 867.343C1044.11 861.621 1042.38 858.705 1041.89 850.509C1040.16 821.458 1072.82 822.404 1092.92 822.391C1090.67 806.273 1081.97 802.136 1066.25 807.052C1061.92 808.404 1058.48 810.989 1053.88 811.654C1050.11 809.594 1046.92 803.835 1049.21 799.861C1051.72 795.497 1060.43 793.502 1064.99 792.227ZM1068.39 836.118C1054.02 844.699 1055.34 857.106 1071.9 859.102C1088.36 857.794 1092.19 851.401 1092.76 835.317L1081.02 835.502L1068.39 836.118Z"/><path fill="#FEFDFD" transform="matrix(1.24187 0 0 1.24187 -6.10352e-05 0)" d="M1186.04 752.616L1203.46 752.689L1203.38 826.512C1212.56 817.105 1224.04 802.145 1233.02 794.129C1239.49 793.633 1248.09 793.934 1254.72 793.981C1244.24 805.605 1234.03 815.732 1223.46 827.92L1247.47 857.296C1250.85 861.44 1254.95 865.939 1258.49 870.017C1251.59 870.285 1242.58 870.323 1235.8 869.916C1228.67 863.125 1210.97 839.823 1203.36 830.893C1203.69 843.606 1203.44 857.371 1203.45 870.166L1185.97 870.22C1186.02 831.04 1185.44 791.873 1186.04 752.616Z"/><path fill="#FEFDFD" transform="matrix(1.24187 0 0 1.24187 -6.10352e-05 0)" d="M463.936 760.703L531.677 760.671L531.743 777.806L481.891 777.696L481.843 808.006L526.199 807.988L526.119 819.726C526.222 821.95 526.462 822.054 525.345 823.895C517.167 824.849 491.595 824.188 481.925 824.181L481.85 870.224L464.03 870.201C463.416 834.294 463.947 796.737 463.936 760.703Z"/><path fill="#FEFDFD" transform="matrix(1.24187 0 0 1.24187 -6.10352e-05 0)" d="M615.682 792.213C619.569 791.991 624.35 792.004 628.307 791.914L628.188 808.127C595.271 806.831 602.815 833.155 601.873 856.696C601.697 861.102 601.944 865.736 601.983 870.169L587.305 870.173L584.826 870.017C583.49 866.572 584.325 802.587 584.349 793.92L601.611 793.837L601.735 803.897C606.403 798.002 608.732 795.458 615.682 792.213Z"/><path fill="#FEFDFD" transform="matrix(1.24187 0 0 1.24187 -6.10352e-05 0)" d="M1160.98 792.245C1164.87 792.013 1169.72 792.037 1173.69 791.957L1173.73 808.079C1137.86 806.367 1145.94 844.658 1146.25 870.232L1130.7 870.215C1129.11 867.549 1129.81 802.424 1129.82 793.858L1146.04 793.798C1146.22 797.519 1146.36 801.165 1146.47 804.886C1150.92 797.361 1153.35 795.554 1160.98 792.245Z"/><path fill="#FEFDFD" transform="matrix(1.24187 0 0 1.24187 -6.10352e-05 0)" d="M545.969 793.944L562.482 793.793C561.633 817.965 561.943 845.91 562.414 870.187L546.014 870.203C545.635 845.105 545.977 819.116 545.969 793.944Z"/><path fill="#FEFDFD" transform="matrix(1.24187 0 0 1.24187 -6.10352e-05 0)" d="M550.645 756.702C556.501 754.536 563.004 757.527 565.169 763.383C567.334 769.24 564.341 775.742 558.485 777.906C552.63 780.07 546.129 777.078 543.964 771.223C541.8 765.368 544.791 758.867 550.645 756.702Z"/></svg>